<svg xmlns="http://www.w3.org/2000/svg" viewBox="0 0 64 64">
  <rect width="64" height="64" rx="16" fill="#fbf8f2"/>
  <rect x="5.5" y="5.5" width="53" height="53" rx="13.5" fill="none" stroke="#1a2228" opacity="0.12"/>

  <g fill="none" stroke="#161819" stroke-width="3.6" stroke-linecap="round" stroke-linejoin="round">
    <path d="M14 30h36"/>
    <path d="M16.5 32.5l1.5 16.2c.2 2.5 2.3 4.5 4.9 4.5h18.2c2.6 0 4.7-2 4.9-4.5L48 32.5"/>
    <path d="M22 53.2l-2.2 3.2M42 53.2l2.2 3.2"/>
    <path d="M45 30v-7.4c0-2 1.6-3.6 3.6-3.6h1.6c1.5 0 2.8 1.2 2.8 2.8v1"/>
    <path d="M52.8 24.6H48"/>
  </g>

  <g fill="#255f58" opacity="0.9">
    <circle cx="37.6" cy="26.8" r="1.25"/>
    <circle cx="35" cy="29.6" r="1.1"/>
    <circle cx="40.2" cy="29.4" r="1.1"/>
  </g>
</svg>
