<svg width="1200" height="900" viewBox="0 0 1200 900" fill="none" xmlns="http://www.w3.org/2000/svg">
  <rect width="1200" height="900" rx="36" fill="#EDE5D8"/>
  <rect x="86" y="92" width="1028" height="716" rx="28" fill="#FBF7F0"/>
  <rect x="130" y="146" width="372" height="608" rx="22" fill="#E3D8C9"/>
  <rect x="548" y="146" width="522" height="608" rx="22" fill="#F0E7DA"/>
  <rect x="630" y="252" width="320" height="292" rx="40" fill="#2E5953"/>
  <path d="M664 382C664 344.445 694.445 314 732 314H846C883.555 314 914 344.445 914 382V552H664V382Z" fill="#F8F2E8"/>
  <rect x="704" y="352" width="168" height="120" rx="24" fill="#DED1C1"/>
  <path d="M862 312V254" stroke="#2E5953" stroke-width="18" stroke-linecap="round"/>
  <path d="M862 254C862 254 906 252 906 292" stroke="#2E5953" stroke-width="18" stroke-linecap="round"/>
  <rect x="748" y="586" width="162" height="22" rx="11" fill="#D9CEBF"/>
  <rect x="172" y="226" width="280" height="34" rx="17" fill="#C89F69"/>
  <rect x="172" y="292" width="244" height="26" rx="13" fill="#CEC2B4"/>
  <rect x="172" y="342" width="198" height="26" rx="13" fill="#D8D0C6"/>
  <rect x="184" y="514" width="106" height="170" rx="28" fill="#CBBEAD"/>
  <rect x="302" y="564" width="134" height="22" rx="11" fill="#D7CBBE"/>
  <circle cx="1010" cy="226" r="40" fill="#C89F69"/>
</svg>
