<svg width="900" height="620" viewBox="0 0 900 620" fill="none" xmlns="http://www.w3.org/2000/svg">
  <rect width="900" height="620" rx="28" fill="#F2ECE3"/>
  <rect x="68" y="82" width="764" height="456" rx="24" fill="#FCF8F2"/>
  <rect x="124" y="174" width="214" height="270" rx="24" fill="#E8DED1"/>
  <rect x="388" y="160" width="224" height="284" rx="28" fill="#315A54"/>
  <path d="M414 270C414 242.386 436.386 220 464 220H538C565.614 220 588 242.386 588 270V412H414V270Z" fill="#F8F2EA"/>
  <rect x="446" y="250" width="112" height="96" rx="16" fill="#E4D8C8"/>
  <path d="M548 220V180" stroke="#315A54" stroke-width="14" stroke-linecap="round"/>
  <path d="M548 180C548 180 582 178 582 210" stroke="#315A54" stroke-width="14" stroke-linecap="round"/>
  <rect x="680" y="170" width="52" height="240" rx="26" fill="#4B6A63"/>
  <rect x="140" y="210" width="32" height="172" rx="16" fill="#B88B4A"/>
  <rect x="164" y="274" width="126" height="32" rx="16" fill="#B88B4A"/>
  <rect x="660" y="458" width="108" height="30" rx="15" fill="#D5CABD"/>
</svg>
