<svg width="900" height="620" viewBox="0 0 900 620" fill="none" xmlns="http://www.w3.org/2000/svg">
  <rect width="900" height="620" rx="28" fill="#EFE7DB"/>
  <rect x="66" y="82" width="768" height="456" rx="24" fill="#FBF7F1"/>
  <rect x="120" y="164" width="294" height="290" rx="22" fill="#E6DDD0"/>
  <rect x="474" y="150" width="252" height="318" rx="32" fill="#405F59"/>
  <path d="M500 270C500 237.967 525.967 212 558 212H640C672.033 212 698 237.967 698 270V430H500V270Z" fill="#F7F2EA"/>
  <rect x="528" y="242" width="132" height="104" rx="18" fill="#E5D8C8"/>
  <path d="M652 212V164" stroke="#405F59" stroke-width="16" stroke-linecap="round"/>
  <path d="M652 164C652 164 692 162 692 198" stroke="#405F59" stroke-width="16" stroke-linecap="round"/>
  <rect x="160" y="214" width="210" height="30" rx="15" fill="#C49A68"/>
  <rect x="160" y="274" width="164" height="22" rx="11" fill="#D1C7BA"/>
  <rect x="160" y="320" width="130" height="22" rx="11" fill="#D1C7BA"/>
  <circle cx="764" cy="178" r="34" fill="#C49A68"/>
</svg>
