<svg width="900" height="620" viewBox="0 0 900 620" fill="none" xmlns="http://www.w3.org/2000/svg">
  <rect width="900" height="620" rx="28" fill="#EEE8DE"/>
  <rect x="70" y="82" width="760" height="456" rx="24" fill="#FAF6F0"/>
  <rect x="130" y="146" width="640" height="328" rx="28" fill="#F1EBE2"/>
  <rect x="194" y="206" width="246" height="192" rx="30" fill="#2E5A53"/>
  <path d="M222 286C222 259.49 243.49 238 270 238H356C382.51 238 404 259.49 404 286V398H222V286Z" fill="#F8F3EB"/>
  <rect x="254" y="264" width="116" height="88" rx="16" fill="#E2D7C9"/>
  <circle cx="566" cy="258" r="54" fill="#D5C8B6"/>
  <circle cx="566" cy="258" r="22" fill="#B6884A"/>
  <rect x="484" y="356" width="168" height="22" rx="11" fill="#CFC3B4"/>
  <rect x="484" y="398" width="124" height="22" rx="11" fill="#D9D0C4"/>
  <rect x="640" y="214" width="42" height="128" rx="21" fill="#45645E"/>
</svg>
