<svg width="900" height="620" viewBox="0 0 900 620" fill="none" xmlns="http://www.w3.org/2000/svg">
  <rect width="900" height="620" rx="28" fill="#F2ECE2"/>
  <rect x="62" y="78" width="776" height="474" rx="24" fill="#FCF8F2"/>
  <rect x="540" y="168" width="200" height="206" rx="26" fill="#2B5952"/>
  <path d="M560 266C560 237.281 583.281 214 612 214H680C708.719 214 732 237.281 732 266V390H560V266Z" fill="#F6F1E8"/>
  <rect x="594" y="240" width="98" height="78" rx="14" fill="#DFD2C2"/>
  <path d="M690 214V172" stroke="#2B5952" stroke-width="14" stroke-linecap="round"/>
  <path d="M690 172C690 172 726 170 726 202" stroke="#2B5952" stroke-width="14" stroke-linecap="round"/>
  <rect x="144" y="172" width="278" height="44" rx="22" fill="#CAB394"/>
  <rect x="144" y="242" width="222" height="26" rx="13" fill="#CFC4B5"/>
  <rect x="144" y="290" width="196" height="24" rx="12" fill="#D8D0C6"/>
  <rect x="144" y="402" width="148" height="96" rx="18" fill="#E6DBCB"/>
</svg>
